# This file uses centimeters as units for non-parametric coordinates.

mtllib plane.mtl
g default
v -36.821942 -0.000000 56.915179
v -29.457554 -0.000000 56.915179
v -22.093166 -0.000000 56.915179
v -14.728776 -0.000000 56.915179
v -7.364388 -0.000000 56.915179
v 0.000000 -0.000000 56.915179
v 7.364390 -0.000000 56.915179
v 14.728776 -0.000000 56.915179
v 22.093166 -0.000000 56.915179
v 29.457556 -0.000000 56.915179
v 36.821942 -0.000000 56.915179
v -36.821942 -0.000000 45.532144
v -29.457554 -0.000000 45.532144
v -22.093166 -0.000000 45.532144
v -14.728776 -0.000000 45.532144
v -7.364388 -0.000000 45.532144
v 0.000000 -0.000000 45.532144
v 7.364390 -0.000000 45.532144
v 14.728776 -0.000000 45.532144
v 22.093166 -0.000000 45.532144
v 29.457556 -0.000000 45.532144
v 36.821942 -0.000000 45.532144
v -36.821942 -0.000000 34.149109
v -29.457554 -0.000000 34.149109
v -22.093166 1.147936 34.149109
v -14.728776 -0.000000 34.149109
v -7.364388 -0.000000 34.149109
v 0.000000 0.348360 34.149109
v 7.364390 1.149566 34.149109
v 14.728776 -0.000000 34.149109
v 22.093166 -0.000000 34.149109
v 29.457556 1.174806 34.149109
v 36.821942 -0.000000 34.149109
v -36.821942 -0.000000 22.766070
v -29.457554 -0.000000 22.766070
v -22.093166 0.766381 22.766070
v -14.728776 -0.000000 22.766070
v -7.364388 1.037875 22.766070
v 0.000000 0.741535 22.766070
v 7.364390 -0.000000 22.766070
v 14.728776 -0.000000 22.766070
v 22.093166 1.380265 22.766070
v 29.457556 -0.000000 22.766070
v 36.821942 -0.000000 22.766070
v -36.821942 -0.000000 11.383035
v -29.457554 -0.000000 11.383035
v -22.093166 0.730805 11.383035
v -14.728776 -0.000000 11.383035
v -7.364388 -0.000000 11.383035
v 0.000000 0.687137 11.383035
v 7.364390 -0.000000 11.383035
v 14.728776 -0.000000 11.383035
v 22.093166 -0.000000 11.383035
v 29.457556 -0.000000 11.383035
v 36.821942 -0.000000 11.383035
v -36.821942 0.000000 0.000000
v -29.457554 0.900894 0.000000
v -22.093166 0.382413 0.000000
v -14.728776 0.000000 0.000000
v -7.364388 0.000000 0.000000
v 0.000000 0.000000 0.000000
v 7.364390 0.382191 0.000000
v 14.728776 0.000000 0.000000
v 22.093166 0.569648 0.000000
v 29.457556 0.000000 0.000000
v 36.821942 0.000000 0.000000
v -36.821942 0.000000 -11.383039
v -29.457554 0.000000 -11.383039
v -22.093166 0.362227 -11.383039
v -14.728776 0.000000 -11.383039
v -7.364388 0.589546 -11.383039
v 0.000000 0.000000 -11.383039
v 7.364390 0.591944 -11.383039
v 14.728776 0.000000 -11.383039
v 22.093166 0.960721 -11.383039
v 29.457556 0.000000 -11.383039
v 36.821942 0.000000 -11.383039
v -36.821942 0.000000 -22.766070
v -29.457554 0.000000 -22.766070
v -22.093166 0.000000 -22.766070
v -14.728776 0.000000 -22.766070
v -7.364388 0.727739 -22.766070
v 0.000000 0.388732 -22.766070
v 7.364390 0.000000 -22.766070
v 14.728776 0.759625 -22.766070
v 22.093166 0.000000 -22.766070
v 29.457556 0.000000 -22.766070
v 36.821942 0.000000 -22.766070
v -36.821942 0.000000 -34.149109
v -29.457554 0.757494 -34.149109
v -22.093166 1.182872 -34.149109
v -14.728776 0.000000 -34.149109
v -7.364388 0.000000 -34.149109
v 0.000000 0.000000 -34.149109
v 7.364390 0.000000 -34.149109
v 14.728776 0.474393 -34.149109
v 22.093166 0.000000 -34.149109
v 29.457556 1.467026 -34.149109
v 36.821942 0.000000 -34.149109
v -36.821942 0.000000 -45.532148
v -29.457554 0.000000 -45.532148
v -22.093166 1.182719 -45.532148
v -14.728776 0.000000 -45.532148
v -7.364388 0.432972 -45.532148
v 0.000000 0.789488 -45.532148
v 7.364390 1.568645 -45.532148
v 14.728776 0.000000 -45.532148
v 22.093166 0.000000 -45.532148
v 29.457556 0.742585 -45.532148
v 36.821942 0.000000 -45.532148
v -36.821942 0.000000 -56.915179
v -29.457554 0.000000 -56.915179
v -22.093166 0.000000 -56.915179
v -14.728776 0.000000 -56.915179
v -7.364388 0.000000 -56.915179
v 0.000000 0.000000 -56.915179
v 7.364390 0.000000 -56.915179
v 14.728776 0.000000 -56.915179
v 22.093166 0.000000 -56.915179
v 29.457556 0.000000 -56.915179
v 36.821942 0.000000 -56.915179
vt 0.000000 0.000000
vt 0.100000 0.000000
vt 0.200000 0.000000
vt 0.300000 0.000000
vt 0.400000 0.000000
vt 0.500000 0.000000
vt 0.600000 0.000000
vt 0.700000 0.000000
vt 0.800000 0.000000
vt 0.900000 0.000000
vt 1.000000 0.000000
vt 0.000000 0.100000
vt 0.100000 0.100000
vt 0.200000 0.100000
vt 0.300000 0.100000
vt 0.400000 0.100000
vt 0.500000 0.100000
vt 0.600000 0.100000
vt 0.700000 0.100000
vt 0.800000 0.100000
vt 0.900000 0.100000
vt 1.000000 0.100000
vt 0.000000 0.200000
vt 0.100000 0.200000
vt 0.200000 0.200000
vt 0.300000 0.200000
vt 0.400000 0.200000
vt 0.500000 0.200000
vt 0.600000 0.200000
vt 0.700000 0.200000
vt 0.800000 0.200000
vt 0.900000 0.200000
vt 1.000000 0.200000
vt 0.000000 0.300000
vt 0.100000 0.300000
vt 0.200000 0.300000
vt 0.300000 0.300000
vt 0.400000 0.300000
vt 0.500000 0.300000
vt 0.600000 0.300000
vt 0.700000 0.300000
vt 0.800000 0.300000
vt 0.900000 0.300000
vt 1.000000 0.300000
vt 0.000000 0.400000
vt 0.100000 0.400000
vt 0.200000 0.400000
vt 0.300000 0.400000
vt 0.400000 0.400000
vt 0.500000 0.400000
vt 0.600000 0.400000
vt 0.700000 0.400000
vt 0.800000 0.400000
vt 0.900000 0.400000
vt 1.000000 0.400000
vt 0.000000 0.500000
vt 0.100000 0.500000
vt 0.200000 0.500000
vt 0.300000 0.500000
vt 0.400000 0.500000
vt 0.500000 0.500000
vt 0.600000 0.500000
vt 0.700000 0.500000
vt 0.800000 0.500000
vt 0.900000 0.500000
vt 1.000000 0.500000
vt 0.000000 0.600000
vt 0.100000 0.600000
vt 0.200000 0.600000
vt 0.300000 0.600000
vt 0.400000 0.600000
vt 0.500000 0.600000
vt 0.600000 0.600000
vt 0.700000 0.600000
vt 0.800000 0.600000
vt 0.900000 0.600000
vt 1.000000 0.600000
vt 0.000000 0.700000
vt 0.100000 0.700000
vt 0.200000 0.700000
vt 0.300000 0.700000
vt 0.400000 0.700000
vt 0.500000 0.700000
vt 0.600000 0.700000
vt 0.700000 0.700000
vt 0.800000 0.700000
vt 0.900000 0.700000
vt 1.000000 0.700000
vt 0.000000 0.800000
vt 0.100000 0.800000
vt 0.200000 0.800000
vt 0.300000 0.800000
vt 0.400000 0.800000
vt 0.500000 0.800000
vt 0.600000 0.800000
vt 0.700000 0.800000
vt 0.800000 0.800000
vt 0.900000 0.800000
vt 1.000000 0.800000
vt 0.000000 0.900000
vt 0.100000 0.900000
vt 0.200000 0.900000
vt 0.300000 0.900000
vt 0.400000 0.900000
vt 0.500000 0.900000
vt 0.600000 0.900000
vt 0.700000 0.900000
vt 0.800000 0.900000
vt 0.900000 0.900000
vt 1.000000 0.900000
vt 0.000000 1.000000
vt 0.100000 1.000000
vt 0.200000 1.000000
vt 0.300000 1.000000
vt 0.400000 1.000000
vt 0.500000 1.000000
vt 0.600000 1.000000
vt 0.700000 1.000000
vt 0.800000 1.000000
vt 0.900000 1.000000
vt 1.000000 1.000000
vn 0.000000 1.000000 0.000000
vn 0.000000 1.000000 0.000000
vn -0.019479 0.999731 0.012602
vn 0.000000 1.000000 0.000000
vn 0.000000 1.000000 0.000000
vn 0.000000 0.999682 0.025204
vn 0.000000 1.000000 0.000000
vn 0.019479 0.999731 0.012602
vn 0.000000 1.000000 0.000000
vn -0.005913 0.999975 0.003825
vn 0.000000 1.000000 0.000000
vn -0.019505 0.999604 0.020267
vn 0.000000 1.000000 0.000000
vn 0.005910 0.999560 0.029060
vn 0.000000 1.000000 0.000000
vn 0.019507 0.999730 0.012620
vn 0.000000 1.000000 0.000000
vn -0.019935 0.999718 0.012897
vn 0.000000 1.000000 0.000000
vn 0.000000 0.999667 0.025793
vn 0.000000 1.000000 0.000000
vn 0.039836 0.998874 0.025773
vn -0.051905 0.998617 0.008404
vn 0.000000 1.000000 0.000000
vn 0.000000 0.999864 0.016491
vn 0.034334 0.999214 0.019797
vn -0.024437 0.999225 0.030846
vn -0.021465 0.999381 0.027878
vn 0.024162 0.999675 0.008177
vn 0.015593 0.999764 0.015153
vn -0.040323 0.998722 0.030470
vn 0.023419 0.999611 0.015151
vn 0.079510 0.996834 0.000000
vn -0.057808 0.998317 -0.004573
vn 0.000000 1.000000 0.000000
vn 0.000000 0.999958 -0.009189
vn 0.022666 0.999733 -0.004579
vn -0.042465 0.999091 0.003750
vn 0.015716 0.999864 -0.005092
vn 0.042930 0.998848 -0.021445
vn -0.027331 0.999547 -0.012618
vn -0.019935 0.999718 -0.012897
vn 0.047089 0.998550 -0.026083
vn 0.039836 0.998874 -0.025773
vn -0.044373 0.998894 0.015519
vn -0.030563 0.999337 0.019773
vn 0.015239 0.999883 0.001450
vn 0.026679 0.999522 -0.015606
vn -0.035911 0.998879 -0.030832
vn 0.011270 0.999661 -0.023488
vn 0.035913 0.999355 0.000272
vn -0.026600 0.999635 -0.004703
vn -0.000000 0.999842 -0.017800
vn 0.033078 0.999413 -0.008896
vn 0.000000 1.000000 0.000000
vn -0.031401 0.999499 -0.004062
vn -0.061052 0.998135 -0.000000
vn 0.030649 0.999497 -0.008133
vn 0.021523 0.999765 0.002426
vn -0.011662 0.999917 0.005402
vn -0.013066 0.999912 -0.002099
vn 0.011631 0.999917 0.005465
vn -0.012620 0.999775 0.017046
vn 0.000000 0.999778 0.021070
vn 0.035620 0.999310 0.010543
vn 0.000000 1.000000 0.000000
vn -0.018835 0.999536 -0.023943
vn -0.030563 0.999337 -0.019773
vn 0.015312 0.999715 -0.018290
vn -0.013577 0.999901 0.003792
vn -0.006630 0.999774 0.020219
vn 0.005732 0.999907 0.012345
vn -0.006278 0.999971 0.004230
vn -0.015719 0.999857 0.006291
vn 0.012811 0.999910 -0.004034
vn 0.042244 0.999088 -0.006250
vn 0.000000 1.000000 0.000000
vn -0.026208 0.999328 0.025631
vn -0.025703 0.999531 0.016629
vn 0.012852 0.999571 0.026330
vn -0.008485 0.999961 0.002538
vn -0.013110 0.999831 -0.012856
vn 0.024716 0.999610 -0.012969
vn -0.020672 0.999756 -0.007828
vn -0.006233 0.999958 -0.006656
vn 0.009034 0.999959 0.000258
vn 0.016301 0.999632 0.021662
vn 0.049714 0.998245 0.032163
vn -0.060208 0.998100 0.013099
vn -0.051362 0.998680 0.000000
vn 0.025422 0.999350 0.025577
vn 0.040494 0.999132 0.009742
vn -0.019995 0.999798 -0.002073
vn -0.006922 0.999716 0.022784
vn -0.009347 0.999493 0.030421
vn 0.026503 0.999649 0.000487
vn -0.033389 0.999442 -0.000187
vn 0.000000 0.999876 0.015725
vn 0.123834 0.992171 0.016181
vn -0.059841 0.997771 -0.029541
vn -0.025703 0.999531 -0.016629
vn 0.013055 0.999337 -0.033991
vn 0.045478 0.998881 -0.012975
vn -0.026781 0.999641 0.000000
vn -0.038673 0.999252 -0.000000
vn 0.017770 0.999829 -0.005138
vn 0.053084 0.998533 -0.010651
vn -0.042011 0.998890 -0.021296
vn 0.000000 0.999481 -0.032198
vn 0.099668 0.994505 -0.032043
vn -0.040104 0.998859 -0.025946
vn 0.000000 1.000000 0.000000
vn 0.000000 0.998653 -0.051881
vn 0.025428 0.999048 -0.035451
vn -0.026774 0.998982 -0.036320
vn -0.038406 0.996187 -0.078339
vn 0.026692 0.995947 -0.085892
vn 0.053144 0.997995 -0.034382
vn -0.025197 0.999550 -0.016302
vn 0.000000 0.999468 -0.032601
vn 0.050327 0.998202 -0.032559
s 1
g pPlane1
usemtl aiStandardSurface1SG
f 1/1/1 2/2/2 13/13/3 12/12/4
f 2/2/2 3/3/5 14/14/6 13/13/3
f 3/3/5 4/4/7 15/15/8 14/14/6
f 4/4/7 5/5/9 16/16/10 15/15/8
f 5/5/9 6/6/11 17/17/12 16/16/10
f 6/6/11 7/7/13 18/18/14 17/17/12
f 7/7/13 8/8/15 19/19/16 18/18/14
f 8/8/15 9/9/17 20/20/18 19/19/16
f 9/9/17 10/10/19 21/21/20 20/20/18
f 10/10/19 11/11/21 22/22/22 21/21/20
f 12/12/4 13/13/3 24/24/23 23/23/24
f 13/13/3 14/14/6 25/25/25 24/24/23
f 14/14/6 15/15/8 26/26/26 25/25/25
f 15/15/8 16/16/10 27/27/27 26/26/26
f 16/16/10 17/17/12 28/28/28 27/27/27
f 17/17/12 18/18/14 29/29/29 28/28/28
f 18/18/14 19/19/16 30/30/30 29/29/29
f 19/19/16 20/20/18 31/31/31 30/30/30
f 20/20/18 21/21/20 32/32/32 31/31/31
f 21/21/20 22/22/22 33/33/33 32/32/32
f 23/23/24 24/24/23 35/35/34 34/34/35
f 24/24/23 25/25/25 36/36/36 35/35/34
f 25/25/25 26/26/26 37/37/37 36/36/36
f 26/26/26 27/27/27 38/38/38 37/37/37
f 27/27/27 28/28/28 39/39/39 38/38/38
f 28/28/28 29/29/29 40/40/40 39/39/39
f 29/29/29 30/30/30 41/41/41 40/40/40
f 30/30/30 31/31/31 42/42/42 41/41/41
f 31/31/31 32/32/32 43/43/43 42/42/42
f 32/32/32 33/33/33 44/44/44 43/43/43
f 34/34/35 35/35/34 46/46/45 45/45/46
f 35/35/34 36/36/36 47/47/47 46/46/45
f 36/36/36 37/37/37 48/48/48 47/47/47
f 37/37/37 38/38/38 49/49/49 48/48/48
f 38/38/38 39/39/39 50/50/50 49/49/49
f 39/39/39 40/40/40 51/51/51 50/50/50
f 40/40/40 41/41/41 52/52/52 51/51/51
f 41/41/41 42/42/42 53/53/53 52/52/52
f 42/42/42 43/43/43 54/54/54 53/53/53
f 43/43/43 44/44/44 55/55/55 54/54/54
f 45/45/46 46/46/45 57/57/56 56/56/57
f 46/46/45 47/47/47 58/58/58 57/57/56
f 47/47/47 48/48/48 59/59/59 58/58/58
f 48/48/48 49/49/49 60/60/60 59/59/59
f 49/49/49 50/50/50 61/61/61 60/60/60
f 50/50/50 51/51/51 62/62/62 61/61/61
f 51/51/51 52/52/52 63/63/63 62/62/62
f 52/52/52 53/53/53 64/64/64 63/63/63
f 53/53/53 54/54/54 65/65/65 64/64/64
f 54/54/54 55/55/55 66/66/66 65/65/65
f 56/56/57 57/57/56 68/68/67 67/67/68
f 57/57/56 58/58/58 69/69/69 68/68/67
f 58/58/58 59/59/59 70/70/70 69/69/69
f 59/59/59 60/60/60 71/71/71 70/70/70
f 60/60/60 61/61/61 72/72/72 71/71/71
f 61/61/61 62/62/62 73/73/73 72/72/72
f 62/62/62 63/63/63 74/74/74 73/73/73
f 63/63/63 64/64/64 75/75/75 74/74/74
f 64/64/64 65/65/65 76/76/76 75/75/75
f 65/65/65 66/66/66 77/77/77 76/76/76
f 67/67/68 68/68/67 79/79/78 78/78/79
f 68/68/67 69/69/69 80/80/80 79/79/78
f 69/69/69 70/70/70 81/81/81 80/80/80
f 70/70/70 71/71/71 82/82/82 81/81/81
f 71/71/71 72/72/72 83/83/83 82/82/82
f 72/72/72 73/73/73 84/84/84 83/83/83
f 73/73/73 74/74/74 85/85/85 84/84/84
f 74/74/74 75/75/75 86/86/86 85/85/85
f 75/75/75 76/76/76 87/87/87 86/86/86
f 76/76/76 77/77/77 88/88/88 87/87/87
f 78/78/79 79/79/78 90/90/89 89/89/90
f 79/79/78 80/80/80 91/91/91 90/90/89
f 80/80/80 81/81/81 92/92/92 91/91/91
f 81/81/81 82/82/82 93/93/93 92/92/92
f 82/82/82 83/83/83 94/94/94 93/93/93
f 83/83/83 84/84/84 95/95/95 94/94/94
f 84/84/84 85/85/85 96/96/96 95/95/95
f 85/85/85 86/86/86 97/97/97 96/96/96
f 86/86/86 87/87/87 98/98/98 97/97/97
f 87/87/87 88/88/88 99/99/99 98/98/98
f 89/89/90 90/90/89 101/101/100 100/100/101
f 90/90/89 91/91/91 102/102/102 101/101/100
f 91/91/91 92/92/92 103/103/103 102/102/102
f 92/92/92 93/93/93 104/104/104 103/103/103
f 93/93/93 94/94/94 105/105/105 104/104/104
f 94/94/94 95/95/95 106/106/106 105/105/105
f 95/95/95 96/96/96 107/107/107 106/106/106
f 96/96/96 97/97/97 108/108/108 107/107/107
f 97/97/97 98/98/98 109/109/109 108/108/108
f 98/98/98 99/99/99 110/110/110 109/109/109
f 100/100/101 101/101/100 112/112/111 111/111/112
f 101/101/100 102/102/102 113/113/113 112/112/111
f 102/102/102 103/103/103 114/114/114 113/113/113
f 103/103/103 104/104/104 115/115/115 114/114/114
f 104/104/104 105/105/105 116/116/116 115/115/115
f 105/105/105 106/106/106 117/117/117 116/116/116
f 106/106/106 107/107/107 118/118/118 117/117/117
f 107/107/107 108/108/108 119/119/119 118/118/118
f 108/108/108 109/109/109 120/120/120 119/119/119
f 109/109/109 110/110/110 121/121/121 120/120/120
