# This file uses centimeters as units for non-parametric coordinates.

mtllib Cloud1.mtl
g default
v -0.731906 -0.390884 -1.437965
v 1.271139 0.300953 -1.281289
v -0.485532 0.465768 -1.775650
v -1.264365 -0.137366 -0.803147
v -0.645528 -0.173447 0.780210
v 1.271139 -0.232403 0.487103
v 1.293457 1.582564 0.199708
v 0.485532 1.970053 -1.269561
v -1.271139 1.486344 -0.827589
v -0.342717 1.315271 1.024901
v 0.757040 0.818962 1.056337
v 0.462965 1.683806 0.838092
v -0.235265 -0.818340 0.151602
v -1.121669 -0.650391 0.195296
v 0.963645 -0.481727 -0.072975
v 1.271139 0.027625 -0.375046
v -1.352853 0.464187 0.067658
v 1.339561 0.891837 -0.642522
v 1.030536 1.871081 -0.601685
v -1.309742 1.276443 -0.035329
v 0.322944 2.082568 -0.731576
v -0.307032 2.330856 -0.211736
v 0.461670 0.376899 -1.622230
v 0.734167 -0.204438 -1.399025
v 0.340798 -0.597197 -1.119469
v -0.037033 -0.355140 0.894048
v 0.117636 1.236867 -1.909141
v -0.740927 0.535399 1.165330
v -1.267459 0.971314 0.740464
v -0.310089 -0.125439 1.115537
v -0.473110 1.846955 -0.850344
v -0.805768 1.956277 0.442198
v -1.007688 1.770725 -0.439074
v 0.455978 -0.951900 -0.186823
v -0.678948 2.192124 0.201338
v 0.724362 1.361739 0.595203
v -0.345223 1.614579 0.423793
v -0.852656 0.713629 0.745995
v -0.284550 -0.166211 0.817569
v 0.903806 0.334392 0.721949
v 1.005769 0.823311 2.402964
v 0.462251 1.980153 1.764556
v -0.903806 1.470084 2.231991
v -0.849380 0.567352 2.598928
v 0.345223 -0.048631 2.460681
v 0.000000 1.256540 2.742518
v -0.335838 2.020019 1.368987
v 0.259656 1.904779 1.102658
v -1.012179 0.992265 1.416591
v -0.870829 1.679304 1.668131
v -0.861133 0.283431 1.787193
v -1.210837 0.682688 1.427917
v 0.772981 -0.059408 1.533475
v -0.185555 -0.249345 1.765055
v 1.085179 1.252160 1.544003
v 1.040176 0.479296 1.594371
v 0.724362 0.014993 -1.244013
v -0.345223 -0.262403 -1.116104
v -0.852656 0.679013 -1.287158
v -0.284550 1.558754 -1.214375
v 0.903806 1.049261 -1.201624
v 1.005769 0.840857 -2.939847
v 0.462251 -0.404567 -2.498521
v -0.903806 0.174866 -2.876573
v -0.849380 1.125332 -3.091474
v 0.345223 1.710547 -2.854680
v 0.000000 0.468762 -3.345470
v -0.335838 -0.508371 -2.114739
v 0.259656 -0.438080 -1.833189
v -1.012179 0.513399 -1.994200
v -0.870829 -0.123457 -2.354353
v -0.861133 1.273157 -2.244319
v -1.210837 0.820683 -1.954918
v 0.772981 1.570061 -1.938116
v -0.185555 1.795202 -2.135642
v 1.085179 0.277746 -2.162267
v 1.040176 1.048484 -2.085997
vt 0.553852 0.329009
vt 0.407768 0.292766
vt 0.059869 0.346153
vt 0.000000 0.194205
vt 0.120351 0.020750
vt 0.427358 0.149979
vt 0.319193 0.190388
vt 0.265353 0.343698
vt 0.118773 0.241485
vt 0.231996 0.105103
vt 0.348017 0.077250
vt 0.283936 0.142379
vt 0.497823 0.402210
vt 0.626991 0.314457
vt 0.583212 0.091449
vt 0.560908 0.174147
vt 0.631700 0.187085
vt 0.025098 0.062426
vt 0.458097 0.192705
vt 0.418783 0.220392
vt 0.080183 0.135239
vt 0.363360 0.253367
vt 0.298033 0.264833
vt 0.127641 0.179309
vt 0.249546 0.287914
vt 0.218447 0.227714
vt 0.433284 0.348120
vt 0.455333 0.298235
vt 0.496786 0.274103
vt 0.520417 0.094921
vt 0.371575 0.406050
vt 0.160595 0.383527
vt 0.175046 0.064735
vt 0.145265 0.116503
vt 0.529891 0.062685
vt 0.185907 0.000000
vt 0.183802 0.278977
vt 0.192187 0.172275
vt 0.153743 0.230686
vt 0.507184 0.198110
vt 0.198114 0.195712
vt 0.616254 0.617421
vt 0.611009 0.722089
vt 0.519011 0.717831
vt 0.548741 0.669165
vt 0.281974 0.667297
vt 0.258571 0.559254
vt 0.323911 0.566085
vt 0.365391 0.609798
vt 0.256299 0.449895
vt 0.337210 0.493310
vt 0.318991 0.540090
vt 0.624545 0.378384
vt 0.631957 0.504502
vt 0.559934 0.460519
vt 0.532973 0.380011
vt 0.548657 0.575921
vt 0.558235 0.507702
vt 0.385796 0.659180
vt 0.354997 0.423171
vt 0.506079 0.524678
vt 0.488060 0.647070
vt 0.448514 0.547117
vt 0.387062 0.579844
vt 0.391194 0.507369
vt 0.463451 0.433672
vt 0.481359 0.895333
vt 0.476115 1.000000
vt 0.384117 0.995742
vt 0.413846 0.947076
vt 0.147080 0.945209
vt 0.123676 0.837165
vt 0.189016 0.843996
vt 0.230497 0.887709
vt 0.121405 0.727806
vt 0.202315 0.771222
vt 0.184096 0.818001
vt 0.489650 0.656295
vt 0.497063 0.782413
vt 0.425039 0.738430
vt 0.398078 0.657922
vt 0.413763 0.853832
vt 0.423341 0.785613
vt 0.250902 0.937091
vt 0.220103 0.701083
vt 0.371185 0.802589
vt 0.353165 0.924982
vt 0.313620 0.825028
vt 0.252167 0.857755
vt 0.256299 0.785280
vt 0.328557 0.711583
vn 0.088590 -0.360560 -0.928519
vn 0.088590 -0.360560 -0.928519
vn 0.119103 -0.342860 -0.931806
vn 0.150470 -0.324120 -0.933973
vn -0.771468 -0.028681 -0.635622
vn -0.771468 -0.028681 -0.635621
vn -0.771468 -0.028681 -0.635622
vn -0.377445 -0.896371 -0.232497
vn -0.350351 -0.934913 -0.056500
vn -0.353750 -0.932319 -0.075110
vn -0.377445 -0.896371 -0.232497
vn -0.185928 -0.950331 -0.249604
vn -0.117713 -0.956982 -0.265196
vn 0.095630 -0.995066 0.026432
vn -0.163414 -0.978175 0.128334
vn 0.101890 -0.642580 -0.759414
vn 0.645925 -0.703742 -0.295850
vn 0.560228 -0.721923 -0.406167
vn 0.573384 0.168879 -0.801693
vn 0.519773 0.105383 -0.847780
vn 0.516359 0.101489 -0.850337
vn 0.573384 0.168879 -0.801693
vn -0.776616 -0.012721 -0.629846
vn -0.776616 -0.012721 -0.629846
vn -0.776616 -0.012721 -0.629846
vn -0.979311 -0.198797 0.037815
vn -0.857668 -0.275857 0.433945
vn -0.837814 -0.280730 0.468250
vn -0.331769 -0.828822 0.450538
vn 0.310606 -0.362339 0.878769
vn 0.275910 -0.402570 0.872818
vn 0.999068 -0.026835 0.033807
vn 0.999066 -0.033969 0.026707
vn 0.999051 -0.035596 0.025087
vn 0.999068 -0.026835 0.033807
vn 0.796074 0.338990 -0.501350
vn 0.796074 0.338990 -0.501350
vn 0.831764 0.334587 -0.442968
vn 0.819202 0.336375 -0.464500
vn -0.478306 0.491749 -0.727603
vn -0.478306 0.491749 -0.727603
vn -0.460922 0.529992 -0.711800
vn -0.458225 0.535657 -0.709297
vn -0.996840 0.010752 -0.078710
vn -0.996210 0.085468 -0.016129
vn -0.989715 0.139875 0.029973
vn -0.996840 0.010752 -0.078710
vn -0.601607 -0.442339 0.665135
vn -0.029412 -0.003742 0.999560
vn 0.030117 0.041228 0.998696
vn 0.810206 0.081940 0.580389
vn 0.810206 0.081940 0.580389
vn 0.810206 0.081940 0.580389
vn 0.265434 0.937138 0.226532
vn 0.268752 0.940985 0.205720
vn 0.274854 0.947232 0.164947
vn 0.265434 0.937138 0.226532
vn -0.285139 0.845158 -0.452110
vn -0.290902 0.845768 -0.447272
vn -0.314386 0.847767 -0.427144
vn 0.016838 0.971435 -0.236709
vn -0.103169 0.939381 -0.326986
vn -0.819168 0.567648 0.082094
vn -0.819956 0.566359 0.083123
vn -0.179201 0.820137 0.543380
vn -0.802105 0.594880 0.052391
vn 0.096411 0.274238 0.956817
vn 0.096411 0.274238 0.956817
vn 0.096411 0.274238 0.956817
vn 0.592288 0.380609 0.710163
vn 0.592288 0.380609 0.710163
vn 0.592288 0.380609 0.710163
vn -0.104404 -0.727457 0.678164
vn 0.088751 -0.847516 0.523298
vn -0.106970 -0.830479 0.546683
vn 0.700290 -0.674560 -0.233587
vn 0.688863 -0.684067 -0.239833
vn 0.793130 -0.583109 -0.175868
vn -0.782837 -0.290874 0.550053
vn -0.754606 -0.197066 0.625887
vn -0.760034 -0.212668 0.614102
vn 0.995866 -0.086963 -0.026228
vn 0.932557 0.302509 -0.197044
vn -0.863657 0.359506 0.353343
vn -0.761867 0.399581 0.509797
vn 0.302649 0.947120 -0.106616
vn 0.482607 0.858183 0.174964
vn -0.096526 0.831854 0.546536
vn -0.101109 0.781372 0.615820
vn -0.000523 0.764004 0.645211
vn -0.000523 0.764004 0.645211
vn 0.367724 -0.178074 -0.912726
vn 0.408237 -0.835503 0.367800
vn 0.680207 -0.691055 -0.244460
vn 0.129657 -0.266748 -0.955005
vn 0.326841 -0.342787 0.880722
vn 0.326841 -0.342787 0.880723
vn -0.356898 0.709327 -0.607848
vn 0.060357 0.064034 0.996121
vn 0.060357 0.064033 0.996121
vn -0.393462 0.848377 -0.354181
vn 0.341810 -0.818978 0.460913
vn -0.392609 0.353367 0.849111
vn -0.408520 0.434552 0.802668
vn 0.158870 0.848744 -0.504375
vn 0.158870 0.848744 -0.504375
vn 0.153379 0.886209 -0.437160
vn 0.154765 0.877794 -0.453349
vn -0.865616 0.337181 -0.370160
vn -0.865615 0.337181 -0.370160
vn -0.879317 0.328978 -0.344348
vn -0.907514 0.309148 -0.284333
vn -0.740161 -0.619323 -0.261916
vn -0.740161 -0.619323 -0.261916
vn -0.780802 -0.610300 -0.133727
vn -0.758178 -0.617041 -0.210779
vn 0.262148 -0.932586 -0.248116
vn 0.262148 -0.932586 -0.248116
vn 0.257726 -0.946609 -0.193671
vn 0.254876 -0.953177 -0.162765
vn 0.963450 0.045986 -0.263911
vn 0.963450 0.045986 -0.263911
vn 0.978485 0.027657 -0.204455
vn 0.980668 0.024493 -0.194142
vn 0.665265 0.727228 -0.169004
vn 0.739402 0.673235 -0.006263
vn 0.755768 0.653616 0.040017
vn -0.626483 0.718551 -0.302001
vn -0.309064 0.899193 0.309729
vn -0.380221 0.901128 0.208326
vn -0.781881 0.487525 -0.388564
vn -0.966919 0.227605 0.115168
vn -0.967155 0.219772 0.127717
vn -0.619312 -0.785134 -0.004183
vn -0.503281 -0.804931 0.314317
vn -0.488289 -0.801771 0.344584
vn 0.896830 -0.437185 -0.067571
vn 0.819793 -0.513152 0.254194
vn 0.823204 -0.511843 0.245666
vn 0.474195 0.585596 0.657431
vn 0.474195 0.585596 0.657431
vn 0.474195 0.585596 0.657431
vn -0.118177 0.824132 0.553933
vn -0.118177 0.824132 0.553933
vn -0.118177 0.824131 0.553933
vn -0.406491 0.322903 0.854692
vn -0.406491 0.322903 0.854692
vn -0.406491 0.322903 0.854692
vn 0.004959 -0.209817 0.977728
vn 0.004959 -0.209817 0.977728
vn 0.004959 -0.209817 0.977728
vn 0.263601 -0.136482 0.954928
vn 0.263601 -0.136482 0.954928
vn 0.263601 -0.136482 0.954928
vn 0.123049 0.981093 -0.149385
vn -0.980468 0.196076 0.015412
vn -0.819157 -0.537607 0.199900
vn 0.219201 -0.969185 0.112391
vn 0.996418 -0.053767 0.065274
vn 0.769611 0.632863 0.084752
vn 0.769611 0.632863 0.084752
vn -0.228860 0.882189 0.411541
vn -0.228860 0.882189 0.411541
vn -0.964678 0.175945 0.196061
vn -0.964678 0.175945 0.196061
vn -0.449791 -0.790340 0.415994
vn -0.449791 -0.790340 0.415994
vn 0.791954 -0.521560 0.317466
vn 0.791954 -0.521560 0.317466
vn 0.158870 -0.919600 0.359300
vn 0.158870 -0.919600 0.359300
vn 0.153379 -0.945609 0.286878
vn 0.154765 -0.939945 0.304221
vn -0.865616 -0.393003 0.310256
vn -0.865616 -0.393003 0.310256
vn -0.879317 -0.380702 0.286126
vn -0.907514 -0.351356 0.230145
vn -0.740161 0.568354 0.359353
vn -0.740161 0.568354 0.359353
vn -0.780802 0.580345 0.231407
vn -0.758177 0.574437 0.308528
vn 0.262148 0.879678 0.396794
vn 0.262148 0.879678 0.396794
vn 0.257725 0.902387 0.345363
vn 0.254876 0.913904 0.315940
vn 0.963450 -0.088384 0.252887
vn 0.963450 -0.088384 0.252887
vn 0.978485 -0.060610 0.197213
vn 0.980668 -0.055807 0.187555
vn 0.665265 -0.745049 0.048218
vn 0.739402 -0.665253 -0.103547
vn 0.755768 -0.638354 -0.146010
vn -0.626483 -0.758164 0.180851
vn -0.309064 -0.836689 -0.452141
vn -0.380221 -0.855125 -0.352410
vn -0.781881 -0.544336 0.303910
vn -0.966919 -0.205791 -0.150724
vn -0.967155 -0.196018 -0.161829
vn -0.619312 0.773954 0.132091
vn -0.503281 0.845396 -0.178924
vn -0.488288 0.847211 -0.209302
vn 0.896830 0.420326 0.137921
vn 0.819793 0.547720 -0.167160
vn 0.823204 0.545038 -0.158959
vn 0.474195 -0.470616 -0.744083
vn 0.474195 -0.470616 -0.744083
vn 0.474195 -0.470616 -0.744083
vn -0.118177 -0.722830 -0.680846
vn -0.118177 -0.722830 -0.680845
vn -0.118177 -0.722830 -0.680846
vn -0.406491 -0.179285 -0.895892
vn -0.406491 -0.179285 -0.895892
vn -0.406491 -0.179285 -0.895892
vn 0.004959 0.366365 -0.930458
vn 0.004959 0.366365 -0.930458
vn 0.004959 0.366365 -0.930458
vn 0.263599 0.290295 -0.919916
vn 0.263599 0.290295 -0.919916
vn 0.263599 0.290295 -0.919916
vn 0.123049 -0.992322 -0.012514
vn -0.980467 -0.190943 -0.047163
vn -0.819157 0.562999 -0.109606
vn 0.219201 0.974544 0.047073
vn 0.996418 0.063687 -0.055638
vn 0.769611 -0.610588 -0.186765
vn 0.769611 -0.610588 -0.186765
vn -0.228860 -0.803319 -0.549820
vn -0.228860 -0.803319 -0.549820
vn -0.964678 -0.141638 -0.222116
vn -0.964678 -0.141638 -0.222116
vn -0.449791 0.847572 -0.281619
vn -0.449791 0.847572 -0.281619
vn 0.791954 0.566328 -0.228216
vn 0.791954 0.566328 -0.228216
s 1
g cloud
usemtl initialShadingGroup
f 1/1/1 3/13/2 23/27/3 24/28/4
s off
f 1/1/5 4/14/6 3/13/7
s 2
f 1/1/8 13/16/9 14/17/10 4/14/11
s 3
f 1/1/12 25/29/13 34/40/14 13/16/15
s 4
f 1/1/16 24/28/17 25/29/18
s 5
f 2/2/19 23/27/20 27/31/21 8/8/22
s off
f 3/3/23 4/4/24 9/9/25
s 6
f 4/4/26 14/18/27 17/21/28
s 7
f 5/15/29 26/30/30 30/35/31
s 8
f 6/6/32 16/20/33 18/22/34 7/7/35
s 9
f 2/2/36 8/8/37 19/23/38 18/22/39
s 10
f 3/3/40 9/9/41 31/37/42 27/32/43
s 11
f 4/4/44 17/21/45 20/24/46 9/9/47
s 12
f 5/5/48 30/36/49 28/33/50
s off
f 6/6/51 7/7/52 11/11/53
s 13
f 7/7/54 19/23/55 21/25/56 12/12/57
s 14
f 8/8/58 31/37/59 33/39/60 22/26/61 21/25/62
s 15
f 9/9/63 20/24/64 35/41/65 33/39/66
s off
f 10/10/67 11/11/68 12/12/69
f 11/11/70 7/7/71 12/12/72
s 2
f 14/17/10 13/16/9 5/15/73
s 3
f 13/16/15 34/40/14 26/30/74 5/15/75
s 4
f 15/19/76 16/20/77 6/6/78
s 6
f 17/21/28 14/18/27 5/5/79 28/33/80 29/34/81
s 8
f 18/22/34 16/20/33 2/2/82
s 9
f 18/22/39 19/23/38 7/7/83
s 11
f 20/24/46 17/21/45 29/34/84 32/38/85
s 13
f 21/25/56 19/23/55 8/8/86
s 14
f 21/25/62 22/26/61 12/12/87
s 15
f 22/26/88 35/41/65 32/38/89 10/10/90 12/12/91
s 1
f 24/28/4 23/27/3 2/2/92
s 3
f 34/40/14 25/29/13 15/19/93
s 4
f 25/29/18 24/28/17 2/2/94 16/20/77 15/19/76
s 5
f 27/31/21 23/27/20 3/13/95
s 7
f 30/35/31 26/30/30 6/6/96 11/11/97
s 10
f 27/32/43 31/37/42 8/8/98
s 12
f 28/33/50 30/36/49 11/11/99 10/10/100
s 14
f 33/39/60 31/37/59 9/9/101
s 15
f 33/39/66 35/41/65 22/26/88
s 3
f 26/30/74 34/40/14 15/19/93 6/6/102
s 6
f 29/34/81 28/33/80 10/10/103
s 11
f 32/38/85 29/34/84 10/10/104
s 15
f 32/38/89 35/41/65 20/24/64
s 16
f 36/42/105 37/43/106 47/44/107 48/45/108
s 17
f 37/46/109 38/47/110 49/48/111 50/49/112
s 18
f 38/47/113 39/50/114 51/51/115 52/52/116
s 19
f 39/53/117 40/54/118 53/55/119 54/56/120
s 20
f 40/54/121 36/42/122 55/57/123 56/58/124
s 21
f 36/42/125 48/45/126 55/57/127
s 22
f 37/46/128 50/49/129 47/59/130
s 23
f 38/47/131 52/52/132 49/48/133
s 24
f 39/50/134 54/60/135 51/51/136
s 25
f 40/54/137 56/58/138 53/55/139
s off
f 41/61/140 42/62/141 46/63/142
f 42/62/143 43/64/144 46/63/145
f 43/64/146 44/65/147 46/63/148
f 44/65/149 45/66/150 46/63/151
f 45/66/152 41/61/153 46/63/154
s 16
f 48/45/108 47/44/107 42/62/155
s 17
f 50/49/112 49/48/111 43/64/156
s 18
f 52/52/116 51/51/115 44/65/157
s 19
f 54/56/120 53/55/119 45/66/158
s 20
f 56/58/124 55/57/123 41/61/159
s 21
f 55/57/127 48/45/126 42/62/160 41/61/161
s 22
f 47/59/130 50/49/129 43/64/162 42/62/163
s 23
f 49/48/133 52/52/132 44/65/164 43/64/165
s 24
f 51/51/136 54/60/135 45/66/166 44/65/167
s 25
f 53/55/139 56/58/138 41/61/168 45/66/169
s 26
f 57/67/170 58/68/171 68/69/172 69/70/173
s 27
f 58/71/174 59/72/175 70/73/176 71/74/177
s 28
f 59/72/178 60/75/179 72/76/180 73/77/181
s 29
f 60/78/182 61/79/183 74/80/184 75/81/185
s 30
f 61/79/186 57/67/187 76/82/188 77/83/189
s 31
f 57/67/190 69/70/191 76/82/192
s 32
f 58/71/193 71/74/194 68/84/195
s 33
f 59/72/196 73/77/197 70/73/198
s 34
f 60/75/199 75/85/200 72/76/201
s 35
f 61/79/202 77/83/203 74/80/204
s off
f 62/86/205 63/87/206 67/88/207
f 63/87/208 64/89/209 67/88/210
f 64/89/211 65/90/212 67/88/213
f 65/90/214 66/91/215 67/88/216
f 66/91/217 62/86/218 67/88/219
s 26
f 69/70/173 68/69/172 63/87/220
s 27
f 71/74/177 70/73/176 64/89/221
s 28
f 73/77/181 72/76/180 65/90/222
s 29
f 75/81/185 74/80/184 66/91/223
s 30
f 77/83/189 76/82/188 62/86/224
s 31
f 76/82/192 69/70/191 63/87/225 62/86/226
s 32
f 68/84/195 71/74/194 64/89/227 63/87/228
s 33
f 70/73/198 73/77/197 65/90/229 64/89/230
s 34
f 72/76/201 75/85/200 66/91/231 65/90/232
s 35
f 74/80/204 77/83/203 62/86/233 66/91/234
