# This file uses centimeters as units for non-parametric coordinates.

mtllib flatRock.mtl
g default
v 0.000000 0.000000 -1.759500
v 1.537771 0.084374 -0.193226
v -0.531310 0.228602 -0.786872
v -1.467345 -0.000000 -0.543061
v -0.890403 -0.228602 -1.472179
v 1.601348 -0.141284 -0.613371
v 1.719355 0.000000 0.786872
v 0.531310 0.111431 0.786872
v -1.436762 0.124686 0.147464
v -1.390987 -0.141284 0.786872
v 0.531310 -0.171498 1.371153
v 0.000000 0.000000 1.759500
v 0.431577 0.184864 -0.786872
v 0.766712 0.077876 -1.223388
v 0.822286 -0.083520 -1.439809
v 0.612228 -0.176658 -0.786872
v -0.050125 0.228602 -0.074236
v 0.066696 -0.228602 0.098777
v -0.580541 0.178097 0.786872
v -0.398418 -0.186370 0.786872
v -0.799145 0.081170 1.200709
v -0.745135 -0.075684 1.238475
vt 0.000144 0.437412
vt 0.081507 0.237321
vt 0.151479 0.372595
vt 0.295539 0.151089
vt 0.000000 0.000000
vt 0.344614 0.225062
vt 0.306773 0.366465
vt 0.229165 0.441449
vt 0.592202 0.428171
vt 0.675281 0.639304
vt 0.510690 0.662279
vt 0.723136 0.398510
vt 0.792428 0.541983
vt 0.341452 0.582800
vt 0.803952 0.663354
vt 0.810063 0.024220
vt 0.896570 0.171765
vt 0.792724 0.236015
vt 0.667241 0.158463
vt 0.896570 0.300196
vt 0.667241 0.306762
vt 0.667241 0.000000
vt 0.760417 0.420966
vt 0.365350 0.426932
vt 0.332621 0.637870
vt 0.194344 0.609113
vt 0.347822 0.765020
vt 0.043856 0.719040
vt 0.085319 0.581770
vt 0.047020 0.461517
vt 0.427151 0.635794
vt 0.543826 0.239870
vt 0.526576 0.000000
vt 0.646817 0.074805
vt 0.666633 0.189970
vt 0.344585 0.190611
vt 0.635423 0.348594
vt 0.368031 0.432013
vt 0.584536 0.432004
vt 0.674750 0.639552
vt 0.723945 0.832206
vt 0.594851 0.864759
vt 0.734738 1.000000
vt 0.633765 0.996414
vt 0.458859 0.738159
vt 0.489314 0.937201
vt 0.401721 0.854994
vt 0.397839 0.999991
vn 0.044408 0.977644 -0.205522
vn 0.044408 0.977644 -0.205522
vn 0.065859 0.979660 -0.189548
vn 0.070629 0.980013 -0.185972
vn -0.310979 0.873256 -0.375122
vn -0.310979 0.873256 -0.375122
vn -0.310979 0.873256 -0.375122
vn -0.351057 0.835125 -0.423467
vn -0.351057 0.835125 -0.423467
vn -0.351057 0.835125 -0.423467
vn 0.086459 -0.969232 -0.230464
vn 0.081922 -0.973429 -0.213835
vn 0.079063 -0.975905 -0.203369
vn 0.086459 -0.969232 -0.230464
vn 0.285472 0.801959 -0.524755
vn 0.458784 0.789442 -0.407796
vn 0.457876 0.789608 -0.408496
vn 0.093393 0.994805 0.040500
vn 0.087184 0.995701 0.031267
vn 0.086096 0.995846 0.029649
vn 0.093393 0.994805 0.040500
vn -0.273164 0.948702 -0.159205
vn -0.273164 0.948702 -0.159205
vn -0.273164 0.948702 -0.159205
vn -0.459804 -0.885439 -0.067664
vn -0.459804 -0.885439 -0.067664
vn -0.459804 -0.885439 -0.067664
vn 0.047795 -0.998433 -0.029119
vn 0.055810 -0.998430 -0.004876
vn 0.056643 -0.998392 -0.002349
vn 0.873375 0.471727 -0.121201
vn 0.873375 0.471727 -0.121201
vn 0.873375 0.471727 -0.121201
vn 0.093166 0.993309 0.068250
vn 0.093166 0.993309 0.068250
vn 0.093166 0.993309 0.068250
vn -0.069958 0.997104 0.029811
vn -0.069958 0.997104 0.029811
vn -0.035242 0.998254 0.047411
vn -0.047369 0.998024 0.041274
vn -0.997581 -0.045652 0.052426
vn -0.997581 -0.045652 0.052426
vn -0.997581 -0.045652 0.052426
vn -0.046247 -0.998517 0.028739
vn -0.043422 -0.998583 0.030772
vn -0.041407 -0.998623 0.032222
vn -0.046247 -0.998517 0.028739
vn 0.182468 -0.979662 0.083470
vn 0.182468 -0.979662 0.083470
vn 0.182468 -0.979662 0.083470
vn 0.092137 0.982335 0.162875
vn 0.092137 0.982335 0.162875
vn 0.092137 0.982335 0.162875
vn 0.028453 0.986119 0.163585
vn -0.018100 0.987159 0.158711
vn 0.001729 0.986981 0.160830
vn 0.028453 0.986119 0.163585
vn -0.585319 0.646194 0.489729
vn -0.585319 0.646194 0.489729
vn -0.601498 0.581754 0.547506
vn -0.601182 0.583268 0.546241
vn -0.044408 -0.977644 0.205522
vn -0.086257 -0.971347 0.221458
vn -0.087124 -0.971196 0.221784
vn 0.449751 -0.406974 0.795044
vn 0.449751 -0.406974 0.795044
vn 0.449751 -0.406974 0.795044
vn 0.154413 0.980475 -0.121760
vn 0.057007 -0.990770 -0.122988
vn 0.487341 0.783631 -0.385255
vn 0.487341 0.783631 -0.385255
vn 0.045356 0.998501 -0.030625
vn 0.058931 -0.998251 0.004596
vn 0.058931 -0.998251 0.004596
vn 0.059581 0.993694 0.094981
vn -0.015822 -0.998594 0.050594
vn -0.166079 0.975999 0.140866
vn -0.573042 -0.000000 0.819526
vn -0.096184 -0.969557 0.225182
vn -0.096184 -0.969557 0.225182
s 1
g pPlatonic1
usemtl initialShadingGroup
f 1/32/1 3/33/2 13/34/3 14/35/4
s off
f 1/32/5 4/36/6 3/33/7
f 1/32/8 5/38/9 4/36/10
s 2
f 1/32/11 15/37/12 16/39/13 5/38/14
s 3
f 1/32/15 14/35/16 15/37/17
s 4
f 2/16/18 13/17/19 17/18/20 8/19/21
s off
f 3/1/22 4/2/23 9/3/24
f 4/2/25 5/5/26 10/4/27
s 5
f 5/24/28 16/25/29 18/26/30
s off
f 6/9/31 2/10/32 7/11/33
f 2/16/34 8/19/35 7/22/36
s 6
f 3/20/37 9/23/38 19/21/39 17/18/40
s off
f 4/2/41 10/4/42 9/3/43
s 7
f 5/24/44 18/26/45 20/29/46 10/30/47
s off
f 6/9/48 7/11/49 11/14/50
f 7/40/51 8/41/52 12/42/53
s 8
f 8/41/54 19/43/55 21/44/56 12/42/57
s 9
f 9/3/58 10/4/59 22/6/60 21/7/61
s 10
f 10/48/62 20/47/63 22/46/64
s off
f 11/45/65 7/40/66 12/42/67
s 1
f 14/13/4 13/15/3 2/10/68
s 2
f 16/25/13 15/31/12 6/27/69
s 3
f 15/12/17 14/13/16 2/10/70 6/9/71
s 4
f 17/18/20 13/17/19 3/20/72
s 5
f 18/26/30 16/25/29 6/27/73 11/28/74
s 6
f 17/18/40 19/21/39 8/19/75
s 7
f 20/29/46 18/26/45 11/28/76
s 8
f 21/7/56 19/8/55 9/3/77
s 9
f 21/44/61 22/46/60 12/42/78
s 10
f 22/46/64 20/47/63 11/45/79 12/42/80
