# This file uses centimeters as units for non-parametric coordinates.

mtllib plane.mtl
g default
v -34.007199 -1.094437 21.686394
v 34.007199 -1.094437 21.686394
v -34.007199 -0.189992 21.686394
v 34.007199 -0.528008 21.686394
v -34.007199 -0.484462 -27.569759
v 34.007199 -0.484462 -27.569759
v -34.007199 -1.094437 -27.569759
v 34.007199 -1.094437 -27.569759
v -34.007199 -0.356178 -5.372739
v 34.007199 -0.298545 -5.372739
v 34.007199 -1.094437 -5.372738
v -34.007199 -1.094437 -5.372738
v 18.259893 -1.094437 21.686394
v 18.259893 -1.094437 -5.372738
v 18.259893 -1.094437 -27.569759
v 18.259893 -0.484462 -27.569759
v 18.259893 -0.606193 -2.642619
v 18.259893 -0.532933 21.686394
v -16.929345 -1.094437 21.686394
v -16.929345 -1.094437 -5.372738
v -16.929345 -1.094437 -27.569759
v -16.929345 -0.484462 -27.569759
v -16.929345 -0.119227 -5.372739
v -16.929345 0.013620 21.686394
v -34.007199 0.023612 6.563106
v -16.929345 0.013620 6.563106
v 18.259893 -0.896550 6.563106
v 34.007199 -0.727318 6.563106
v 34.007199 -1.094437 6.563107
v 18.259893 -1.263669 6.563106
v -16.929345 -1.094437 6.563106
v -34.007199 -1.094437 6.563107
v -34.007199 -0.106870 0.595184
v -16.929345 -0.355107 0.595184
v -34.007199 -1.094437 -11.818079
v -16.929345 -1.094437 -11.818080
v 18.259893 -1.094437 -11.818080
v 34.007199 -1.094437 -11.818079
v 34.007199 -0.313408 -11.818081
v 18.259893 -0.258049 -10.400738
v -16.929345 -0.294850 -11.818080
v -34.007199 -0.413886 -11.818081
vt 0.375000 0.000000
vt 0.625000 0.500000
vt 0.375000 0.250000
vt 0.625000 0.250000
vt 0.375000 0.500000
vt 0.625000 0.500000
vt 0.375000 0.750000
vt 0.625000 0.750000
vt 0.375000 0.500000
vt 0.875000 0.000000
vt 0.875000 0.250000
vt 0.125000 0.000000
vt 0.125000 0.250000
vt 0.205948 0.250000
vt 0.375000 0.419052
vt 0.625000 0.419052
vt 0.794052 0.250000
vt 0.625000 0.830948
vt 0.794052 0.000000
vt 0.205948 0.000000
vt 0.375000 0.830948
vt 0.567118 0.500000
vt 0.567118 0.830948
vt 0.567118 0.750000
vt 0.567118 0.500000
vt 0.567118 0.419052
vt 0.567118 0.250000
vt 0.437773 0.500000
vt 0.437773 0.830948
vt 0.437773 0.750000
vt 0.437773 0.500000
vt 0.437773 0.419052
vt 0.437773 0.250000
vt 0.303812 0.250000
vt 0.375000 0.321188
vt 0.437773 0.321188
vt 0.567118 0.321188
vt 0.625000 0.321188
vt 0.696188 0.250000
vt 0.625000 0.928812
vt 0.696188 0.000000
vt 0.567118 0.928812
vt 0.437773 0.928812
vt 0.303812 0.000000
vt 0.375000 0.928812
vt 0.254880 0.250000
vt 0.375000 0.370120
vt 0.437773 0.370120
vt 0.167024 0.000000
vt 0.375000 0.792024
vt 0.437773 0.792024
vt 0.567118 0.792024
vt 0.625000 0.792024
vt 0.832976 0.000000
vt 0.625000 0.457976
vt 0.832976 0.250000
vt 0.567118 0.457976
vt 0.437773 0.457976
vt 0.167024 0.250000
vt 0.375000 0.457976
vt 0.625000 0.250000
vt 0.625000 0.000000
vt 0.375000 0.250000
vt 0.437773 0.500000
vt 0.567118 0.500000
vt 0.625000 0.500000
vt 0.375000 0.500000
vt 0.437773 0.750000
vt 0.567118 0.750000
vt 0.625000 0.750000
vt 0.375000 0.750000
vn -0.000000 0.000000 1.000000
vn -0.000000 0.000000 1.000000
vn -0.000000 0.000000 1.000000
vn -0.000000 0.000000 1.000000
vn 0.000407 0.999973 -0.007395
vn 0.001175 0.999989 -0.004495
vn 0.006256 0.999857 0.015699
vn -0.005855 0.999675 0.024815
vn 0.000000 0.000000 -1.000000
vn 0.000000 0.000000 -1.000000
vn 0.000000 0.000000 -1.000000
vn 0.000000 0.000000 -1.000000
vn -0.000000 -0.999989 -0.004603
vn 0.000000 -1.000000 0.000000
vn 0.000000 -1.000000 0.000000
vn 0.003489 -0.999983 -0.004603
vn 1.000000 -0.000001 0.000000
vn 1.000000 -0.000003 0.000000
vn 1.000000 -0.000004 0.000000
vn 1.000000 -0.000001 0.000000
vn -1.000000 -0.000002 0.000000
vn -1.000000 -0.000004 0.000000
vn -1.000000 0.000002 0.000000
vn -1.000000 0.000003 0.000000
vn 0.008490 0.999961 -0.002525
vn -0.008336 0.999959 0.003553
vn 1.000000 -0.000004 0.000000
vn 1.000000 -0.000004 0.000000
vn 0.005373 -0.999986 0.000000
vn -0.000457 -1.000000 0.000355
vn -1.000000 -0.000000 0.000000
vn -1.000000 -0.000000 0.000000
vn -1.000000 0.000003 0.000000
vn -0.001619 -0.999999 0.000000
vn -0.001051 -0.999995 -0.003099
vn 0.000000 -1.000000 0.000000
vn 0.000000 0.000000 -1.000000
vn 0.000000 0.000000 -1.000000
vn -0.001373 0.999947 -0.010236
vn 0.006179 0.999971 0.004454
vn 0.011078 0.999937 -0.001643
vn 0.011525 0.999880 -0.010377
vn 0.000000 0.000000 1.000000
vn 0.000000 0.000000 1.000000
vn 0.000000 -1.000000 0.000000
vn 0.000000 -1.000000 0.000000
vn 0.000000 -1.000000 0.000000
vn 0.000000 0.000000 -1.000000
vn 0.000000 0.000000 -1.000000
vn -0.009960 0.999799 -0.017371
vn -0.003929 0.999953 -0.008888
vn 0.007250 0.999170 -0.040079
vn 0.000000 0.000000 1.000000
vn 0.000000 0.000000 1.000000
vn -0.005669 0.999959 0.007062
vn 0.012082 0.999910 -0.005786
vn -0.001939 0.999976 -0.006721
vn 0.015167 0.999795 -0.013408
vn -0.005529 0.999812 -0.018608
vn 1.000000 -0.000004 0.000000
vn 1.000000 -0.000004 0.000000
vn 0.000000 -0.999984 0.005595
vn 0.005373 -0.999970 0.005595
vn -0.001619 -0.999992 0.003767
vn 0.000000 -1.000000 0.000000
vn -1.000000 -0.000002 0.000000
vn -1.000000 -0.000002 0.000000
vn 0.000000 -1.000000 0.000000
vn 0.000000 -1.000000 0.000000
vn 0.000000 -1.000000 0.000000
vn 0.000000 -1.000000 0.000000
vn 1.000000 -0.000006 0.000000
vn 1.000000 -0.000006 0.000000
vn 0.000190 0.999922 -0.012462
vn 0.001214 0.999926 -0.012073
vn -0.001288 0.999936 -0.011248
vn -0.003485 0.999960 -0.008259
vn -1.000000 -0.000006 0.000000
vn -1.000000 -0.000006 0.000000
s 1
g pCube1
usemtl initialShadingGroup
f 18/27/1 13/22/2 2/66/3 4/4/4
s 2
f 39/55/5 40/57/6 17/26/7 10/16/8
s 3
f 15/69/9 16/25/10 6/6/11 8/70/12
s 4
f 14/23/13 37/52/14 38/53/15 11/18/16
s 5
f 10/17/17 11/19/18 38/54/19 39/56/20
s 6
f 42/59/21 35/49/22 12/20/23 9/14/24
s 2
f 17/26/7 27/37/25 28/38/26 10/16/8
s 5
f 28/39/27 29/41/28 11/19/18 10/17/17
s 4
f 29/40/29 30/42/30 14/23/13 11/18/16
s 6
f 9/14/24 12/20/23 32/44/31 25/34/32 33/46/33
s 4
f 30/42/30 31/43/34 20/29/35 14/23/13
f 20/29/35 36/51/36 37/52/14 14/23/13
s 3
f 21/68/37 22/31/38 16/25/10 15/69/9
s 2
f 40/57/6 41/58/39 23/32/40 17/26/7
f 23/32/40 34/48/41 26/36/42 27/37/25 17/26/7
s 1
f 24/33/43 19/28/44 13/22/2 18/27/1
s 4
f 12/21/45 20/29/35 31/43/34 32/45/46
f 35/50/47 36/51/36 20/29/35 12/21/45
s 3
f 5/5/48 22/31/38 21/68/37 7/71/49
s 2
f 9/15/50 23/32/40 41/58/39 42/60/51
f 33/47/52 34/48/41 23/32/40 9/15/50
s 1
f 1/9/53 19/28/44 24/33/43 3/3/54
s 2
f 3/3/55 24/33/56 26/36/42 25/35/57
f 27/37/25 26/36/42 24/33/56 18/27/58
f 28/38/26 27/37/25 18/27/58 4/4/59
s 5
f 2/62/60 29/41/28 28/39/27 4/61/61
s 4
f 13/65/62 30/42/30 29/40/29 2/2/63
f 19/64/64 31/43/34 30/42/30 13/65/62
f 32/45/46 31/43/34 19/64/64 1/67/65
s 6
f 25/34/32 32/44/31 1/1/66 3/63/67
s 2
f 25/35/57 26/36/42 34/48/41 33/47/52
s 4
f 7/7/68 21/30/69 36/51/36 35/50/47
f 37/52/14 36/51/36 21/30/69 15/24/70
f 38/53/15 37/52/14 15/24/70 8/8/71
s 5
f 39/56/20 38/54/19 8/10/72 6/11/73
s 2
f 16/25/74 40/57/6 39/55/5 6/6/75
f 22/31/76 41/58/39 40/57/6 16/25/74
f 42/60/51 41/58/39 22/31/76 5/5/77
s 6
f 7/12/78 35/49/22 42/59/21 5/13/79
