# This file uses centimeters as units for non-parametric coordinates.

mtllib plane_placeHolder.mtl
g default
v -30.631291 -1.117098 27.772492
v 30.631291 -1.117098 27.772492
v -30.631291 -0.193926 27.772492
v 30.631291 -0.538941 27.772492
v -30.631291 -0.494493 -35.306974
v 30.631291 -0.494493 -35.306974
v -30.631291 -1.117098 -35.306974
v 30.631291 -1.117098 -35.306974
v -30.631291 -0.363554 -6.880551
v 30.631291 -0.304727 -6.880551
v 30.631291 -1.117098 -6.880551
v -30.631291 -1.117098 -6.880551
v 16.447227 -1.117098 27.772492
v 16.447227 -1.117098 -6.880551
v 16.447227 -1.117098 -35.306974
v 16.447227 -0.494493 -35.306974
v 16.447227 -0.618745 -3.384248
v 16.447227 -0.543968 27.772492
v -15.248762 -1.117098 27.772492
v -15.248762 -1.117098 -6.880551
v -15.248762 -1.117098 -35.306974
v -15.248762 -0.494493 -35.306974
v -15.248762 -0.121696 -6.880551
v -15.248762 0.013902 27.772492
v -30.631291 0.024101 8.404985
v -15.248762 0.013902 8.404985
v 16.447227 -0.915114 8.404985
v 30.631291 -0.742378 8.404985
v 30.631291 -1.117098 8.404986
v 16.447227 -1.289834 8.404985
v -15.248762 -1.117098 8.404985
v -30.631291 -1.117098 8.404986
v -30.631291 -0.109083 0.762217
v -15.248762 -0.362459 0.762217
v -30.631291 -1.117098 -15.134721
v -15.248762 -1.117098 -15.134722
v 16.447227 -1.117098 -15.134722
v 30.631291 -1.117098 -15.134721
v 30.631291 -0.319897 -15.134723
v 16.447227 -0.263392 -13.319616
v -15.248762 -0.300955 -15.134722
v -30.631291 -0.422456 -15.134723
vt 0.375000 0.000000
vt 0.625000 0.500000
vt 0.375000 0.250000
vt 0.625000 0.250000
vt 0.375000 0.500000
vt 0.625000 0.500000
vt 0.375000 0.750000
vt 0.625000 0.750000
vt 0.375000 0.500000
vt 0.875000 0.000000
vt 0.875000 0.250000
vt 0.125000 0.000000
vt 0.125000 0.250000
vt 0.205948 0.250000
vt 0.375000 0.419052
vt 0.625000 0.419052
vt 0.794052 0.250000
vt 0.625000 0.830948
vt 0.794052 0.000000
vt 0.205948 0.000000
vt 0.375000 0.830948
vt 0.567118 0.500000
vt 0.567118 0.830948
vt 0.567118 0.750000
vt 0.567118 0.500000
vt 0.567118 0.419052
vt 0.567118 0.250000
vt 0.437773 0.500000
vt 0.437773 0.830948
vt 0.437773 0.750000
vt 0.437773 0.500000
vt 0.437773 0.419052
vt 0.437773 0.250000
vt 0.303812 0.250000
vt 0.375000 0.321188
vt 0.437773 0.321188
vt 0.567118 0.321188
vt 0.625000 0.321188
vt 0.696188 0.250000
vt 0.625000 0.928812
vt 0.696188 0.000000
vt 0.567118 0.928812
vt 0.437773 0.928812
vt 0.303812 0.000000
vt 0.375000 0.928812
vt 0.254880 0.250000
vt 0.375000 0.370120
vt 0.437773 0.370120
vt 0.167024 0.000000
vt 0.375000 0.792024
vt 0.437773 0.792024
vt 0.567118 0.792024
vt 0.625000 0.792024
vt 0.832976 0.000000
vt 0.625000 0.457976
vt 0.832976 0.250000
vt 0.567118 0.457976
vt 0.437773 0.457976
vt 0.167024 0.250000
vt 0.375000 0.457976
vt 0.625000 0.250000
vt 0.625000 0.000000
vt 0.375000 0.250000
vt 0.437773 0.500000
vt 0.567118 0.500000
vt 0.625000 0.500000
vt 0.375000 0.500000
vt 0.437773 0.750000
vt 0.567118 0.750000
vt 0.625000 0.750000
vt 0.375000 0.750000
vn -0.000000 0.000000 1.000000
vn -0.000000 0.000000 1.000000
vn -0.000000 0.000000 1.000000
vn -0.000000 0.000000 1.000000
vn 0.000461 0.999983 -0.005894
vn 0.001332 0.999993 -0.003583
vn 0.007090 0.999897 0.012513
vn -0.006635 0.999782 0.019780
vn 0.000000 0.000000 -1.000000
vn 0.000000 0.000000 -1.000000
vn 0.000000 0.000000 -1.000000
vn 0.000000 0.000000 -1.000000
vn -0.000000 -0.999993 -0.003669
vn 0.000000 -1.000000 0.000000
vn 0.000000 -1.000000 0.000000
vn 0.003954 -0.999985 -0.003669
vn 1.000000 -0.000000 0.000000
vn 1.000000 -0.000002 0.000000
vn 1.000000 -0.000003 0.000000
vn 1.000000 -0.000001 0.000000
vn -1.000000 -0.000002 0.000000
vn -1.000000 -0.000004 0.000000
vn -1.000000 0.000002 0.000000
vn -1.000000 0.000002 0.000000
vn 0.009620 0.999952 -0.002013
vn -0.009446 0.999951 0.002832
vn 1.000000 -0.000004 0.000000
vn 1.000000 -0.000004 0.000000
vn 0.006089 -0.999981 0.000000
vn -0.000518 -1.000000 0.000283
vn -1.000000 -0.000000 0.000000
vn -1.000000 -0.000000 0.000000
vn -1.000000 0.000002 0.000000
vn -0.001835 -0.999998 0.000000
vn -0.001191 -0.999996 -0.002470
vn 0.000000 -1.000000 0.000000
vn 0.000000 0.000000 -1.000000
vn 0.000000 0.000000 -1.000000
vn -0.001556 0.999965 -0.008158
vn 0.007002 0.999969 0.003550
vn 0.012553 0.999920 -0.001309
vn 0.013060 0.999881 -0.008271
vn 0.000000 0.000000 1.000000
vn 0.000000 0.000000 1.000000
vn 0.000000 -1.000000 0.000000
vn 0.000000 -1.000000 0.000000
vn 0.000000 -1.000000 0.000000
vn 0.000000 0.000000 -1.000000
vn 0.000000 0.000000 -1.000000
vn -0.011287 0.999840 -0.013845
vn -0.004452 0.999965 -0.007084
vn 0.008218 0.999456 -0.031953
vn 0.000000 0.000000 1.000000
vn 0.000000 0.000000 1.000000
vn -0.006424 0.999964 0.005628
vn 0.013691 0.999896 -0.004611
vn -0.002197 0.999983 -0.005357
vn 0.017187 0.999795 -0.010687
vn -0.006265 0.999870 -0.014832
vn 1.000000 -0.000004 0.000000
vn 1.000000 -0.000004 0.000000
vn 0.000000 -0.999990 0.004459
vn 0.006089 -0.999972 0.004459
vn -0.001835 -0.999994 0.003002
vn 0.000000 -1.000000 0.000000
vn -1.000000 -0.000002 0.000000
vn -1.000000 -0.000002 0.000000
vn 0.000000 -1.000000 0.000000
vn 0.000000 -1.000000 0.000000
vn 0.000000 -1.000000 0.000000
vn 0.000000 -1.000000 0.000000
vn 1.000000 -0.000005 0.000000
vn 1.000000 -0.000005 0.000000
vn 0.000215 0.999951 -0.009933
vn 0.001376 0.999953 -0.009622
vn -0.001460 0.999959 -0.008965
vn -0.003949 0.999970 -0.006582
vn -1.000000 -0.000005 0.000000
vn -1.000000 -0.000005 0.000000
s 1
g pCube1
usemtl initialShadingGroup
f 18/27/1 13/22/2 2/66/3 4/4/4
s 2
f 39/55/5 40/57/6 17/26/7 10/16/8
s 3
f 15/69/9 16/25/10 6/6/11 8/70/12
s 4
f 14/23/13 37/52/14 38/53/15 11/18/16
s 5
f 10/17/17 11/19/18 38/54/19 39/56/20
s 6
f 42/59/21 35/49/22 12/20/23 9/14/24
s 2
f 17/26/7 27/37/25 28/38/26 10/16/8
s 5
f 28/39/27 29/41/28 11/19/18 10/17/17
s 4
f 29/40/29 30/42/30 14/23/13 11/18/16
s 6
f 9/14/24 12/20/23 32/44/31 25/34/32 33/46/33
s 4
f 30/42/30 31/43/34 20/29/35 14/23/13
f 20/29/35 36/51/36 37/52/14 14/23/13
s 3
f 21/68/37 22/31/38 16/25/10 15/69/9
s 2
f 40/57/6 41/58/39 23/32/40 17/26/7
f 23/32/40 34/48/41 26/36/42 27/37/25 17/26/7
s 1
f 24/33/43 19/28/44 13/22/2 18/27/1
s 4
f 12/21/45 20/29/35 31/43/34 32/45/46
f 35/50/47 36/51/36 20/29/35 12/21/45
s 3
f 5/5/48 22/31/38 21/68/37 7/71/49
s 2
f 9/15/50 23/32/40 41/58/39 42/60/51
f 33/47/52 34/48/41 23/32/40 9/15/50
s 1
f 1/9/53 19/28/44 24/33/43 3/3/54
s 2
f 3/3/55 24/33/56 26/36/42 25/35/57
f 27/37/25 26/36/42 24/33/56 18/27/58
f 28/38/26 27/37/25 18/27/58 4/4/59
s 5
f 2/62/60 29/41/28 28/39/27 4/61/61
s 4
f 13/65/62 30/42/30 29/40/29 2/2/63
f 19/64/64 31/43/34 30/42/30 13/65/62
f 32/45/46 31/43/34 19/64/64 1/67/65
s 6
f 25/34/32 32/44/31 1/1/66 3/63/67
s 2
f 25/35/57 26/36/42 34/48/41 33/47/52
s 4
f 7/7/68 21/30/69 36/51/36 35/50/47
f 37/52/14 36/51/36 21/30/69 15/24/70
f 38/53/15 37/52/14 15/24/70 8/8/71
s 5
f 39/56/20 38/54/19 8/10/72 6/11/73
s 2
f 16/25/74 40/57/6 39/55/5 6/6/75
f 22/31/76 41/58/39 40/57/6 16/25/74
f 42/60/51 41/58/39 22/31/76 5/5/77
s 6
f 7/12/78 35/49/22 42/59/21 5/13/79
