# This file uses centimeters as units for non-parametric coordinates.

mtllib plane_placeHolder.mtl
g default
v -40.947927 -2.022799 37.126284
v 40.947927 -2.022799 37.126284
v -40.947927 -0.351154 37.126284
v 40.947927 -0.975893 37.126284
v -40.947927 -0.895409 -47.198383
v 40.947927 -0.895409 -47.198383
v -40.947927 -2.022799 -47.198383
v 40.947927 -2.022799 -47.198383
v -40.947927 -0.658309 -9.197925
v 40.947927 -0.551787 -9.197925
v 40.947927 -2.022799 -9.197924
v -40.947927 -2.022799 -9.197924
v 21.986662 -2.022799 37.126284
v 21.986662 -2.022799 -9.197924
v 21.986662 -2.022799 -47.198383
v 21.986662 -0.895409 -47.198383
v 21.986662 -1.120401 -4.524064
v 21.986662 -0.984996 37.126284
v -20.384554 -2.022799 37.126284
v -20.384554 -2.022799 -9.197924
v -20.384554 -2.022799 -47.198383
v -20.384554 -0.895409 -47.198383
v -20.384554 -0.220362 -9.197925
v -20.384554 0.025174 37.126284
v -40.947927 0.043641 11.235789
v -20.384554 0.025174 11.235789
v 21.986662 -1.657054 11.235789
v 40.947927 -1.344270 11.235789
v 40.947927 -2.022799 11.235790
v 21.986662 -2.335583 11.235789
v -20.384554 -2.022799 11.235789
v -40.947927 -2.022799 11.235790
v -40.947927 -0.197523 1.018932
v -20.384554 -0.656328 1.018932
v -40.947927 -2.022799 -20.232104
v -20.384554 -2.022799 -20.232105
v 21.986662 -2.022799 -20.232105
v 40.947927 -2.022799 -20.232104
v 40.947927 -0.579258 -20.232107
v 21.986662 -0.476940 -17.805670
v -20.384554 -0.544958 -20.232105
v -40.947927 -0.764967 -20.232107
vt 0.375000 0.000000
vt 0.625000 0.500000
vt 0.375000 0.250000
vt 0.625000 0.250000
vt 0.375000 0.500000
vt 0.625000 0.500000
vt 0.375000 0.750000
vt 0.625000 0.750000
vt 0.375000 0.500000
vt 0.875000 0.000000
vt 0.875000 0.250000
vt 0.125000 0.000000
vt 0.125000 0.250000
vt 0.205948 0.250000
vt 0.375000 0.419052
vt 0.625000 0.419052
vt 0.794052 0.250000
vt 0.625000 0.830948
vt 0.794052 0.000000
vt 0.205948 0.000000
vt 0.375000 0.830948
vt 0.567118 0.500000
vt 0.567118 0.830948
vt 0.567118 0.750000
vt 0.567118 0.500000
vt 0.567118 0.419052
vt 0.567118 0.250000
vt 0.437773 0.500000
vt 0.437773 0.830948
vt 0.437773 0.750000
vt 0.437773 0.500000
vt 0.437773 0.419052
vt 0.437773 0.250000
vt 0.303812 0.250000
vt 0.375000 0.321188
vt 0.437773 0.321188
vt 0.567118 0.321188
vt 0.625000 0.321188
vt 0.696188 0.250000
vt 0.625000 0.928812
vt 0.696188 0.000000
vt 0.567118 0.928812
vt 0.437773 0.928812
vt 0.303812 0.000000
vt 0.375000 0.928812
vt 0.254880 0.250000
vt 0.375000 0.370120
vt 0.437773 0.370120
vt 0.167024 0.000000
vt 0.375000 0.792024
vt 0.437773 0.792024
vt 0.567118 0.792024
vt 0.625000 0.792024
vt 0.832976 0.000000
vt 0.625000 0.457976
vt 0.832976 0.250000
vt 0.567118 0.457976
vt 0.437773 0.457976
vt 0.167024 0.250000
vt 0.375000 0.457976
vt 0.437773 0.250000
vt 0.567118 0.250000
vt 0.437773 0.500000
vt 0.567118 0.500000
vt 0.625000 0.250000
vt 0.625000 0.500000
vt 0.375000 0.500000
vt 0.375000 0.250000
vt 0.625000 0.000000
vt 0.625000 0.250000
vt 0.375000 0.250000
vn -0.000000 0.000000 1.000000
vn -0.000000 0.000000 1.000000
vn -0.000000 0.000000 1.000000
vn -0.000000 0.000000 1.000000
vn 0.000625 0.999968 -0.007984
vn 0.001804 0.999987 -0.004853
vn 0.009603 0.999810 0.016948
vn -0.008986 0.999601 0.026789
vn 0.000000 0.000000 -1.000000
vn 0.000000 0.000000 -1.000000
vn 0.000000 0.000000 -1.000000
vn 0.000000 0.000000 -1.000000
vn -0.000000 -0.999988 -0.004970
vn 0.000000 -1.000000 0.000000
vn 0.000000 -1.000000 0.000000
vn 0.005356 -0.999973 -0.004970
vn 1.000000 -0.000000 0.000000
vn 1.000000 -0.000002 0.000000
vn 1.000000 -0.000003 0.000000
vn 1.000000 -0.000001 0.000000
vn -1.000000 -0.000001 0.000000
vn -1.000000 -0.000003 0.000000
vn -1.000000 0.000001 0.000000
vn -1.000000 0.000002 0.000000
vn 0.013031 0.999911 -0.002726
vn -0.012795 0.999911 0.003835
vn 1.000000 -0.000003 0.000000
vn 1.000000 -0.000003 0.000000
vn 0.008248 -0.999966 0.000000
vn -0.000702 -1.000000 0.000384
vn -1.000000 -0.000000 0.000000
vn -1.000000 -0.000000 0.000000
vn -1.000000 0.000002 0.000000
vn -0.002485 -0.999997 0.000000
vn -0.001614 -0.999993 -0.003346
vn 0.000000 -1.000000 0.000000
vn 0.000000 0.000000 -1.000000
vn 0.000000 0.000000 -1.000000
vn -0.002108 0.999937 -0.011051
vn 0.009484 0.999943 0.004808
vn 0.017003 0.999854 -0.001773
vn 0.017689 0.999781 -0.011202
vn 0.000000 0.000000 1.000000
vn 0.000000 0.000000 1.000000
vn 0.000000 -1.000000 0.000000
vn 0.000000 -1.000000 0.000000
vn 0.000000 -1.000000 0.000000
vn 0.000000 0.000000 -1.000000
vn 0.000000 0.000000 -1.000000
vn -0.015287 0.999707 -0.018752
vn -0.006030 0.999936 -0.009595
vn 0.011127 0.999002 -0.043263
vn 0.000000 0.000000 1.000000
vn 0.000000 0.000000 1.000000
vn -0.008701 0.999933 0.007624
vn 0.018544 0.999809 -0.006246
vn -0.002976 0.999969 -0.007256
vn 0.023277 0.999624 -0.014473
vn -0.008486 0.999762 -0.020088
vn 1.000000 -0.000003 0.000000
vn 1.000000 -0.000003 0.000000
vn 0.000000 -0.999982 0.006040
vn 0.008248 -0.999948 0.006040
vn -0.002485 -0.999989 0.004067
vn 0.000000 -1.000000 0.000000
vn -1.000000 -0.000001 0.000000
vn -1.000000 -0.000001 0.000000
vn 0.000000 -1.000000 0.000000
vn 0.000000 -1.000000 0.000000
vn 0.000000 -1.000000 0.000000
vn 0.000000 -1.000000 0.000000
vn 1.000000 -0.000004 0.000000
vn 1.000000 -0.000004 0.000000
vn 0.000292 0.999909 -0.013454
vn 0.001864 0.999913 -0.013034
vn -0.001978 0.999924 -0.012143
vn -0.005349 0.999946 -0.008916
vn -1.000000 -0.000004 0.000000
vn -1.000000 -0.000004 0.000000
s 1
g pCube1
usemtl initialShadingGroup
f 18/62/1 13/22/2 2/2/3 4/70/4
s 2
f 39/55/5 40/57/6 17/26/7 10/16/8
s 3
f 15/24/9 16/25/10 6/66/11 8/8/12
s 4
f 14/23/13 37/52/14 38/53/15 11/18/16
s 5
f 10/17/17 11/19/18 38/54/19 39/56/20
s 6
f 42/59/21 35/49/22 12/20/23 9/14/24
s 2
f 17/26/7 27/37/25 28/38/26 10/16/8
s 5
f 28/39/27 29/41/28 11/19/18 10/17/17
s 4
f 29/40/29 30/42/30 14/23/13 11/18/16
s 6
f 9/14/24 12/20/23 32/44/31 25/34/32 33/46/33
s 4
f 30/42/30 31/43/34 20/29/35 14/23/13
f 20/29/35 36/51/36 37/52/14 14/23/13
s 3
f 21/30/37 22/63/38 16/25/10 15/24/9
s 2
f 40/57/6 41/58/39 23/32/40 17/26/7
f 23/32/40 34/48/41 26/36/42 27/37/25 17/26/7
s 1
f 24/61/43 19/28/44 13/22/2 18/62/1
s 4
f 12/21/45 20/29/35 31/43/34 32/45/46
f 35/50/47 36/51/36 20/29/35 12/21/45
s 3
f 5/5/48 22/63/38 21/30/37 7/7/49
s 2
f 9/15/50 23/32/40 41/58/39 42/60/51
f 33/47/52 34/48/41 23/32/40 9/15/50
s 1
f 1/9/53 19/28/44 24/61/43 3/68/54
s 2
f 3/3/55 24/33/56 26/36/42 25/35/57
f 27/37/25 26/36/42 24/33/56 18/27/58
f 28/38/26 27/37/25 18/27/58 4/4/59
s 5
f 2/69/60 29/41/28 28/39/27 4/65/61
s 4
f 13/22/62 30/42/30 29/40/29 2/2/63
f 19/28/64 31/43/34 30/42/30 13/22/62
f 32/45/46 31/43/34 19/28/64 1/9/65
s 6
f 25/34/32 32/44/31 1/1/66 3/71/67
s 2
f 25/35/57 26/36/42 34/48/41 33/47/52
s 4
f 7/7/68 21/30/69 36/51/36 35/50/47
f 37/52/14 36/51/36 21/30/69 15/24/70
f 38/53/15 37/52/14 15/24/70 8/8/71
s 5
f 39/56/20 38/54/19 8/10/72 6/11/73
s 2
f 16/64/74 40/57/6 39/55/5 6/6/75
f 22/31/76 41/58/39 40/57/6 16/64/74
f 42/60/51 41/58/39 22/31/76 5/67/77
s 6
f 7/12/78 35/49/22 42/59/21 5/13/79
