# This file uses centimeters as units for non-parametric coordinates.

mtllib backToMenu_OBJ.mtl
g default
v -2.766574 6.101086 -0.029630
v -2.353388 5.290163 -0.029630
v -1.709837 4.646612 -0.029630
v -0.898914 4.233427 -0.029630
v 0.000000 4.091053 -0.029630
v -2.908946 7.000000 -0.029630
v -2.766574 6.101086 0.029630
v -2.353388 5.290163 0.029630
v -1.709837 4.646612 0.029630
v -0.898914 4.233427 0.029630
v 0.000000 4.091053 0.029630
v -2.908946 7.000000 0.029630
v -0.581789 7.000000 0.029630
v -0.553315 6.820217 0.029630
v -0.470678 6.658033 0.029630
v -0.341967 6.529322 0.029630
v -0.179783 6.446685 0.029630
v 0.000000 6.418211 0.029630
v -0.179783 6.446685 -0.029630
v 0.000000 6.418211 -0.029630
v -0.581789 7.000000 -0.029630
v -0.553315 6.820217 -0.029630
v -0.470678 6.658033 -0.029630
v -0.341967 6.529322 -0.029630
vt 0.243736 0.111179
vt 0.294327 0.111179
vt 0.294327 0.474141
vt 0.243736 0.474141
vt 0.334476 0.111179
vt 0.334476 0.474141
vt 0.187655 0.111179
vt 0.187655 0.474141
vt 0.478548 0.474141
vt 0.467332 0.474141
vt 0.467332 0.111179
vt 0.478548 0.111179
vt 0.457214 0.474141
vt 0.457214 0.111179
vt 0.449184 0.474141
vt 0.449184 0.111179
vt 0.653945 0.474141
vt 0.508760 0.474141
vt 0.508760 0.111179
vt 0.653945 0.111179
vt 0.711123 0.645650
vt 0.792218 0.604329
vt 0.864134 0.825664
vt 0.847915 0.833928
vt 0.882114 0.590092
vt 0.882113 0.822817
vt 0.646765 0.710007
vt 0.835044 0.846800
vt 0.605445 0.791103
vt 0.826780 0.863019
vt 0.591207 0.880998
vt 0.823932 0.880998
vt 0.157425 0.861568
vt 0.171663 0.771672
vt 0.392998 0.843589
vt 0.390150 0.861568
vt 0.212983 0.690577
vt 0.401262 0.827369
vt 0.277341 0.626219
vt 0.414134 0.814498
vt 0.358437 0.584899
vt 0.430353 0.806234
vt 0.448332 0.570661
vt 0.448332 0.803386
vt 0.445214 0.474141
vt 0.394622 0.474141
vt 0.394622 0.111179
vt 0.445214 0.111179
vt 0.338542 0.474141
vt 0.338542 0.111179
vt 0.504562 0.474141
vt 0.494443 0.474141
vt 0.494443 0.111179
vt 0.504562 0.111179
vt 0.483227 0.474141
vt 0.483227 0.111179
vt 0.803494 0.474141
vt 0.658309 0.474141
vt 0.658309 0.111179
vt 0.803494 0.111179
vn -0.951057 -0.309016 -0.000000
vn -0.809017 -0.587785 -0.000000
vn -0.809017 -0.587785 -0.000000
vn -0.951057 -0.309016 -0.000000
vn -0.587785 -0.809017 -0.000000
vn -0.587785 -0.809017 -0.000000
vn -0.309017 -0.951057 -0.000000
vn -0.309017 -0.951057 -0.000000
vn -0.156434 -0.987688 -0.000000
vn -0.156434 -0.987688 -0.000000
vn -0.987689 -0.156432 -0.000000
vn -0.987689 -0.156432 -0.000000
vn 0.000000 0.000000 -1.000000
vn 0.000000 0.000000 -1.000000
vn 0.000000 0.000000 -1.000000
vn 0.000000 0.000000 -1.000000
vn -0.000000 -0.000000 -1.000000
vn -0.000000 -0.000000 -1.000000
vn 0.000000 0.000000 -1.000000
vn 0.000000 0.000000 -1.000000
vn -0.000000 -0.000000 -1.000000
vn -0.000000 -0.000000 -1.000000
vn 0.000000 0.000000 -1.000000
vn 0.000000 0.000000 -1.000000
vn -0.000000 -0.000000 1.000000
vn 0.000000 0.000000 1.000000
vn 0.000000 0.000000 1.000000
vn -0.000000 -0.000000 1.000000
vn 0.000000 0.000000 1.000000
vn 0.000000 0.000000 1.000000
vn -0.000000 -0.000000 1.000000
vn -0.000000 -0.000000 1.000000
vn 0.000000 0.000000 1.000000
vn 0.000000 0.000000 1.000000
vn -0.000000 -0.000000 1.000000
vn -0.000000 -0.000000 1.000000
vn 0.987689 0.156433 -0.000001
vn 0.987689 0.156433 -0.000001
vn 0.987689 0.156433 -0.000001
vn 0.987689 0.156433 -0.000001
vn 0.891007 0.453990 -0.000001
vn 0.891007 0.453990 -0.000001
vn 0.891007 0.453990 -0.000001
vn 0.891007 0.453990 -0.000001
vn 0.707107 0.707106 0.000000
vn 0.707107 0.707106 0.000000
vn 0.707107 0.707106 0.000000
vn 0.707107 0.707106 0.000000
vn 0.453992 0.891006 0.000000
vn 0.453992 0.891006 0.000000
vn 0.453992 0.891006 0.000000
vn 0.453992 0.891006 0.000000
vn 0.156431 0.987689 0.000000
vn 0.156431 0.987689 0.000000
vn 0.156431 0.987689 0.000000
vn 0.156431 0.987689 0.000000
vn 1.000000 -0.000000 -0.000000
vn 1.000000 -0.000000 -0.000000
vn 1.000000 -0.000000 -0.000000
vn 1.000000 -0.000000 -0.000000
vn -0.000000 1.000000 0.000000
vn -0.000000 1.000000 0.000000
vn -0.000000 1.000000 0.000000
vn -0.000000 1.000000 0.000000
s 1
g BackToMenuRoom
usemtl initialShadingGroup
f 1/1/1 2/2/2 8/3/3 7/4/4
f 2/2/2 3/5/5 9/6/6 8/3/3
f 3/45/5 4/46/7 10/47/8 9/48/6
f 4/46/7 5/49/9 11/50/10 10/47/8
f 6/7/11 1/1/1 7/4/4 12/8/12
s 2
f 2/21/13 1/22/14 22/23/15 23/24/16
f 3/27/17 2/21/13 23/24/16 24/28/18
f 4/29/19 3/27/17 24/28/18 19/30/20
f 5/31/21 4/29/19 19/30/20 20/32/22
f 1/22/14 6/25/23 21/26/24 22/23/15
s 3
f 12/33/25 7/34/26 14/35/27 13/36/28
f 7/34/26 8/37/29 15/38/30 14/35/27
f 8/37/29 9/39/31 16/40/32 15/38/30
f 9/39/31 10/41/33 17/42/34 16/40/32
f 10/41/33 11/43/35 18/44/36 17/42/34
s off
f 13/9/37 14/10/38 22/11/39 21/12/40
f 14/10/41 15/13/42 23/14/43 22/11/44
f 15/13/45 16/15/46 24/16/47 23/14/48
f 16/51/49 17/52/50 19/53/51 24/54/52
f 17/52/53 18/55/54 20/56/55 19/53/56
f 18/17/57 11/18/58 5/19/59 20/20/60
f 12/57/61 13/58/62 21/59/63 6/60/64
